<?xml version="1.0" encoding="UTF-8" standalone="no"?>
<svg
   xmlns:dc="http://purl.org/dc/elements/1.1/"
   xmlns:cc="http://creativecommons.org/ns#"
   xmlns:rdf="http://www.w3.org/1999/02/22-rdf-syntax-ns#"
   xmlns:svg="http://www.w3.org/2000/svg"
   xmlns="http://www.w3.org/2000/svg"
   xmlns:sodipodi="http://sodipodi.sourceforge.net/DTD/sodipodi-0.dtd"
   xmlns:inkscape="http://www.inkscape.org/namespaces/inkscape"
   viewBox="0 0 160 160"
   version="1.1"
   id="svg_null"
   sodipodi:docname="logo_transparent.svg"
   inkscape:version="1.0.1 (1.0.1+r73)">
  <metadata
     id="metadata20">
    <rdf:RDF>
      <cc:Work
         rdf:about="">
        <dc:format>image/svg+xml</dc:format>
        <dc:type
           rdf:resource="http://purl.org/dc/dcmitype/StillImage" />
        <dc:title></dc:title>
      </cc:Work>
    </rdf:RDF>
  </metadata>
  <defs
     id="defs18" />
  <sodipodi:namedview
     pagecolor="#ffffff"
     bordercolor="#666666"
     borderopacity="1"
     objecttolerance="10"
     gridtolerance="10"
     guidetolerance="10"
     inkscape:pageopacity="0"
     inkscape:pageshadow="2"
     inkscape:window-width="1640"
     inkscape:window-height="1026"
     id="namedview16"
     showgrid="false"
     inkscape:zoom="5.3375"
     inkscape:cx="68.758783"
     inkscape:cy="80"
     inkscape:window-x="1406"
     inkscape:window-y="0"
     inkscape:window-maximized="1"
     inkscape:current-layer="svg_null"
     inkscape:document-rotation="0" />
  <g
     id="root"
     stroke="none"
     stroke-width="1"
     fill="none"
     fill-rule="evenodd">
    <path
       d="M80 9.288l-63.37 51.488l-1.26 -1.552l64.63 -52.512l64.63 52.512l-1.26 1.552l-63.37 -51.488zm0 140.911l63.37 -51.487l1.26 1.552l-64.63 52.512l-64.63 -52.512l1.26 -1.552l63.37 51.487z"
       id="shape.primary"
       fill="#eeeeee"
       fill-rule="nonzero" />
    <rect
       id="icon.primary"
       x="60"
       y="41"
       width="40"
       height="40"
       display="none"
       fill="#eeeeee" />
    <svg
       viewBox="0 0 50 50"
       version="1.1"
       fill="#eeeeee"
       id="svg_icon.primary"
       x="60"
       y="41"
       width="40"
       height="40">
      <g
         id="surface1"
         fill="#eeeeee">
        <path
           style=" "
           d="M 2.84375 3 C 1.273438 3 0 4.273438 0 5.84375 L 0 10 L 50 10 L 50 5.84375 C 50 4.273438 48.726563 3 47.15625 3 Z M 0 12 L 0 46 C 0 46.554688 0.449219 47 1 47 L 49 47 C 49.554688 47 50 46.554688 50 46 L 50 12 Z M 15.09375 19.96875 C 15.351563 19.972656 15.589844 20.050781 15.78125 20.25 L 22.40625 27.0625 L 15.625 33.6875 C 15.429688 33.875 15.191406 33.96875 14.9375 33.96875 C 14.675781 33.96875 14.414063 33.855469 14.21875 33.65625 C 13.832031 33.261719 13.824219 32.636719 14.21875 32.25 L 19.59375 27.03125 L 14.375 21.65625 C 13.988281 21.261719 13.980469 20.636719 14.375 20.25 C 14.574219 20.054688 14.835938 19.964844 15.09375 19.96875 Z M 23 32 L 36 32 C 36.554688 32 37 32.445313 37 33 C 37 33.554688 36.554688 34 36 34 L 23 34 C 22.449219 34 22 33.554688 22 33 C 22 32.445313 22.449219 32 23 32 Z "
           fill="#eeeeee"
           id="path5" />
      </g>
    </svg>
    <g
       id="group"
       transform="translate(36.000000, 86.000000)">
      <rect
         id="Rectangle-39"
         x="0"
         y="1"
         width="88"
         height="19" />
      <text
         id="headerText.primary"
         font-family="Saira"
         font-size="18"
         font-weight="500"
         letter-spacing=".81"
         fill="#eeeeee"
         data-text-alignment="C"
         font-style="normal"><tspan
           x="15.517290115356445"
           y="15"
           id="tspan10">pervoj</tspan></text>
    </g>
  </g>
</svg>
