<?xml version="1.0" encoding="UTF-8" standalone="no"?>
<svg
   xmlns:dc="http://purl.org/dc/elements/1.1/"
   xmlns:cc="http://creativecommons.org/ns#"
   xmlns:rdf="http://www.w3.org/1999/02/22-rdf-syntax-ns#"
   xmlns:svg="http://www.w3.org/2000/svg"
   xmlns="http://www.w3.org/2000/svg"
   xmlns:sodipodi="http://sodipodi.sourceforge.net/DTD/sodipodi-0.dtd"
   xmlns:inkscape="http://www.inkscape.org/namespaces/inkscape"
   viewBox="0 3 50 44"
   version="1.1"
   id="svg4"
   sodipodi:docname="logo_path.svg"
   inkscape:version="0.92.5 (2060ec1f9f, 2020-04-08)">
  <metadata
     id="metadata10">
    <rdf:RDF>
      <cc:Work
         rdf:about="">
        <dc:format>image/svg+xml</dc:format>
        <dc:type
           rdf:resource="http://purl.org/dc/dcmitype/StillImage" />
      </cc:Work>
    </rdf:RDF>
  </metadata>
  <defs
     id="defs8" />
  <sodipodi:namedview
     pagecolor="#ffffff"
     bordercolor="#666666"
     borderopacity="1"
     objecttolerance="10"
     gridtolerance="10"
     guidetolerance="10"
     inkscape:pageopacity="0"
     inkscape:pageshadow="2"
     inkscape:window-width="1640"
     inkscape:window-height="1026"
     id="namedview6"
     showgrid="false"
     inkscape:zoom="5.3636364"
     inkscape:cx="57.067797"
     inkscape:cy="22"
     inkscape:window-x="1406"
     inkscape:window-y="0"
     inkscape:window-maximized="1"
     inkscape:current-layer="svg4" />
  <path
     d="M 2.84375,3 C 1.273438,3 0,4.273438 0,5.84375 V 10 H 50 V 5.84375 C 50,4.273438 48.726563,3 47.15625,3 Z M 0,12 v 34 c 0,0.554688 0.449219,1 1,1 h 48 c 0.554688,0 1,-0.445312 1,-1 V 12 Z m 15.09375,7.96875 c 0.257813,0.0039 0.496094,0.08203 0.6875,0.28125 l 6.625,6.8125 -6.78125,6.625 c -0.195312,0.1875 -0.433594,0.28125 -0.6875,0.28125 -0.261719,0 -0.523437,-0.113281 -0.71875,-0.3125 -0.386719,-0.394531 -0.394531,-1.019531 0,-1.40625 l 5.375,-5.21875 -5.21875,-5.375 c -0.386719,-0.394531 -0.394531,-1.019531 0,-1.40625 0.199219,-0.195312 0.460938,-0.285156 0.71875,-0.28125 z M 23,32 h 13 c 0.554688,0 1,0.445313 1,1 0,0.554688 -0.445312,1 -1,1 H 23 c -0.550781,0 -1,-0.445312 -1,-1 0,-0.554687 0.449219,-1 1,-1 z"
     id="path2"
     inkscape:connector-curvature="0"
     style="fill:#eeeeee" />
</svg>
