<?xml version="1.0" encoding="UTF-8" standalone="no"?>
<svg
   xmlns:dc="http://purl.org/dc/elements/1.1/"
   xmlns:cc="http://creativecommons.org/ns#"
   xmlns:rdf="http://www.w3.org/1999/02/22-rdf-syntax-ns#"
   xmlns:svg="http://www.w3.org/2000/svg"
   xmlns="http://www.w3.org/2000/svg"
   xmlns:sodipodi="http://sodipodi.sourceforge.net/DTD/sodipodi-0.dtd"
   xmlns:inkscape="http://www.inkscape.org/namespaces/inkscape"
   viewBox="15.369141 8.8242188 428.267579 146.06445119999998"
   version="1.1"
   id="svg4"
   sodipodi:docname="logo_web_path.svg"
   inkscape:export-filename="/home/pernikv/Odkazy/Mega/Voj-Tech/Loga/pervoj/logo_web_path.png"
   inkscape:export-xdpi="96"
   inkscape:export-ydpi="96"
   inkscape:version="0.92.5 (2060ec1f9f, 2020-04-08)">
  <metadata
     id="metadata10">
    <rdf:RDF>
      <cc:Work
         rdf:about="">
        <dc:format>image/svg+xml</dc:format>
        <dc:type
           rdf:resource="http://purl.org/dc/dcmitype/StillImage" />
      </cc:Work>
    </rdf:RDF>
  </metadata>
  <defs
     id="defs8" />
  <sodipodi:namedview
     pagecolor="#ffffff"
     bordercolor="#666666"
     borderopacity="1"
     objecttolerance="10"
     gridtolerance="10"
     guidetolerance="10"
     inkscape:pageopacity="0"
     inkscape:pageshadow="2"
     inkscape:window-width="1640"
     inkscape:window-height="1025"
     id="namedview6"
     showgrid="false"
     inkscape:zoom="0.89430071"
     inkscape:cx="17.891074"
     inkscape:cy="73.032227"
     inkscape:window-x="40"
     inkscape:window-y="0"
     inkscape:window-maximized="1"
     inkscape:current-layer="svg4" />
  <path
     d="M 80 8.8242188 L 15.369141 61.335938 L 16.630859 62.888672 L 80 11.400391 L 143.36914 62.888672 L 144.63086 61.335938 L 80 8.8242188 z M 435.38086 34.736328 L 435.38086 43.664062 L 443.63672 43.664062 L 443.63672 34.736328 L 435.38086 34.736328 z M 62.275391 45.511719 C 61.019141 45.511719 60 46.53086 60 47.787109 L 60 51.111328 L 100 51.111328 L 100 47.787109 C 100 46.53086 98.980865 45.511719 97.724609 45.511719 L 62.275391 45.511719 z M 60 52.712891 L 60 79.912109 C 60 80.355859 60.360156 80.712891 60.800781 80.712891 L 99.199219 80.712891 C 99.642971 80.712891 100 80.355859 100 79.912109 L 100 52.712891 L 60 52.712891 z M 208.63086 56.335938 C 204.72688 56.335938 201.36678 56.880751 198.55078 57.96875 C 195.79879 59.056749 193.78196 61.071629 192.50195 64.015625 L 191.92578 64.015625 L 191.54297 57.103516 L 184.63086 57.103516 L 184.63086 125.26367 L 192.40625 125.26367 L 192.40625 99.919922 L 192.88672 99.919922 C 194.16673 102.47991 196.0865 104.27288 198.64648 105.29688 C 201.27049 106.32087 204.66227 106.83203 208.82227 106.83203 C 213.62226 106.83203 217.26964 106.09505 219.76562 104.62305 C 222.32561 103.15104 224.11856 100.62306 225.14258 97.039062 C 226.23055 93.455072 226.77539 88.272271 226.77539 81.488281 C 226.77539 74.768301 226.23055 69.648906 225.14258 66.128906 C 224.11856 62.544919 222.32561 60.016916 219.76562 58.544922 C 217.20562 57.072925 213.49483 56.335938 208.63086 56.335938 z M 260.85156 56.335938 C 254.25955 56.335938 249.42941 57.168033 246.35742 58.832031 C 243.34941 60.496028 241.39601 63.024026 240.5 66.416016 C 239.66802 69.808006 239.25195 74.895688 239.25195 81.679688 C 239.25195 88.591667 239.73337 93.744728 240.69336 97.136719 C 241.65336 100.5287 243.66823 102.99134 246.74023 104.52734 C 249.87624 106.06333 254.74005 106.83203 261.33203 106.83203 C 264.27601 106.83203 267.38053 106.70326 270.64453 106.44727 C 273.90852 106.19128 276.56528 105.87228 278.61328 105.48828 L 278.61328 98.671875 C 273.10928 99.375875 267.8928 99.728516 262.96484 99.728516 C 257.90883 99.728516 254.29318 99.344172 252.11719 98.576172 C 250.0052 97.744187 248.62828 96.335563 247.98828 94.351562 C 247.34827 92.367563 247.0293 89.039177 247.0293 84.367188 L 280.5332 84.367188 L 280.5332 81.583984 C 280.5332 74.608004 280.14885 69.488599 279.38086 66.224609 C 278.67685 62.896611 276.94925 60.432026 274.19727 58.832031 C 271.44525 57.168033 266.99555 56.335938 260.85156 56.335938 z M 319.31641 56.335938 C 314.9644 56.335938 311.44385 57.072925 308.75586 58.544922 C 306.06787 59.952918 304.14809 62.576028 302.99609 66.416016 L 302.41992 66.416016 L 302.03711 57.103516 L 295.125 57.103516 L 295.125 106.06445 L 302.90039 106.06445 L 302.90039 84.175781 C 302.90039 79.439791 303.34812 75.695349 304.24414 72.943359 C 305.1401 70.127359 306.7726 68.047125 309.14062 66.703125 C 311.50859 65.359125 314.90041 64.6875 319.31641 64.6875 L 319.31641 56.335938 z M 399.66797 56.335938 C 392.82 56.335938 387.92449 57.039271 384.98047 58.447266 C 382.03649 59.791263 380.14839 62.127082 379.31641 65.455078 C 378.5484 68.719068 378.16406 74.095994 378.16406 81.583984 C 378.16406 89.071964 378.5484 94.480593 379.31641 97.808594 C 380.14839 101.07257 382.03649 103.40842 384.98047 104.81641 C 387.92449 106.16041 392.82 106.83203 399.66797 106.83203 C 406.45198 106.83203 411.3158 106.16041 414.25977 104.81641 C 417.20376 103.40842 419.06013 101.07257 419.82812 97.808594 C 420.66014 94.480593 421.07617 89.071964 421.07617 81.583984 C 421.07617 74.095994 420.66014 68.719068 419.82812 65.455078 C 419.06013 62.127082 417.20376 59.791263 414.25977 58.447266 C 411.3158 57.039271 406.45198 56.335937 399.66797 56.335938 z M 324.5957 57.103516 L 342.64453 106.06445 L 352.33984 106.06445 L 370.29297 57.103516 L 362.32422 57.103516 L 347.92383 97.423828 L 347.25195 97.423828 L 332.75586 57.103516 L 324.5957 57.103516 z M 435.66797 57.103516 L 435.66797 113.45508 C 435.66797 114.92708 435.47595 116.0167 435.0918 116.7207 C 434.7078 117.42469 433.8757 117.93586 432.5957 118.25586 C 431.31572 118.57587 429.26912 118.73633 426.45312 118.73633 L 426.45312 125.26367 C 431.18912 125.26367 434.67602 124.97639 436.91602 124.40039 C 439.22002 123.8884 440.88418 122.67194 441.9082 120.75195 C 442.93219 118.83195 443.44336 115.75915 443.44336 111.53516 L 443.44336 57.103516 L 435.66797 57.103516 z M 72.074219 59.087891 C 72.280469 59.090991 72.471875 59.15312 72.625 59.3125 L 77.925781 64.761719 L 72.5 70.0625 C 72.34375 70.2125 72.152343 70.287109 71.949219 70.287109 C 71.739843 70.287109 71.53125 70.196489 71.375 70.037109 C 71.065624 69.721485 71.059375 69.221485 71.375 68.912109 L 75.675781 64.736328 L 71.5 60.4375 C 71.190624 60.121875 71.184375 59.621875 71.5 59.3125 C 71.659375 59.15625 71.867969 59.084766 72.074219 59.087891 z M 260.66016 63.439453 C 264.11615 63.439453 266.67583 63.760411 268.33984 64.400391 C 270.00384 65.040391 271.18861 66.351948 271.89258 68.335938 C 272.66058 70.319937 273.04492 73.424448 273.04492 77.648438 L 273.04492 78.416016 L 247.0293 78.416016 C 247.0932 73.936016 247.41229 70.704693 247.98828 68.720703 C 248.62828 66.672703 249.84473 65.295797 251.63672 64.591797 C 253.49272 63.823797 256.50019 63.439453 260.66016 63.439453 z M 399.66797 63.439453 C 404.33998 63.439453 407.57129 63.8555 409.36328 64.6875 C 411.15529 65.5195 412.24491 67.056875 412.62891 69.296875 C 413.0769 71.472865 413.30078 75.567994 413.30078 81.583984 C 413.30078 87.599964 413.07705 91.72875 412.62891 93.96875 C 412.24491 96.144741 411.15526 97.648474 409.36328 98.480469 C 407.57129 99.312469 404.33998 99.728516 399.66797 99.728516 C 394.99599 99.728516 391.73296 99.312469 389.87695 98.480469 C 388.08497 97.648474 386.96364 96.144741 386.51562 93.96875 C 386.13163 91.72875 385.93945 87.599964 385.93945 81.583984 C 385.93945 75.567994 386.13147 71.472865 386.51562 69.296875 C 386.96364 67.056875 388.08497 65.5195 389.87695 64.6875 C 391.73296 63.8555 394.99599 63.439453 399.66797 63.439453 z M 205.55859 63.824219 C 209.71859 63.824219 212.66264 64.240266 214.39062 65.072266 C 216.18261 65.840256 217.36736 67.407401 217.94336 69.775391 C 218.58339 72.143391 218.90234 76.079994 218.90234 81.583984 C 218.90234 87.087974 218.58334 91.024578 217.94336 93.392578 C 217.36736 95.760579 216.18261 97.327708 214.39062 98.095703 C 212.66264 98.863703 209.71859 99.248047 205.55859 99.248047 C 202.23061 99.248047 199.6075 98.800287 197.6875 97.904297 C 195.76751 97.008292 194.39058 95.536282 193.55859 93.488281 C 193.04659 92.272281 192.72568 90.768562 192.59766 88.976562 C 192.46954 87.184573 192.40625 84.719984 192.40625 81.583984 C 192.40625 78.511984 192.46992 76.047396 192.59766 74.191406 C 192.78966 72.335406 193.17399 70.704865 193.75 69.296875 C 194.51799 67.440875 195.86321 66.063969 197.7832 65.167969 C 199.7032 64.271969 202.2946 63.824219 205.55859 63.824219 z M 78.400391 68.712891 L 88.800781 68.712891 C 89.244531 68.712891 89.599609 69.06797 89.599609 69.511719 C 89.599609 69.95547 89.244531 70.3125 88.800781 70.3125 L 78.400391 70.3125 C 77.959766 70.3125 77.599609 69.95547 77.599609 69.511719 C 77.599609 69.06797 77.959766 68.712891 78.400391 68.712891 z M 104.66992 89.738281 L 104.66992 91.681641 L 106.66797 91.681641 L 106.66797 89.738281 L 104.66992 89.738281 z M 58.138672 93.787109 C 57.478672 93.787109 56.896578 93.884169 56.392578 94.076172 C 55.900578 94.268172 55.527391 94.622672 55.275391 95.138672 L 55.150391 95.138672 L 55.095703 93.931641 L 53.332031 93.931641 L 53.332031 106.69336 L 55.240234 106.69336 L 55.240234 102.05078 L 55.365234 102.05078 C 55.617234 102.50678 55.977313 102.82391 56.445312 103.00391 C 56.913312 103.17191 57.500984 103.25586 58.208984 103.25586 C 59.036984 103.25586 59.680719 103.11222 60.136719 102.82422 C 60.592719 102.53622 60.915422 102.05677 61.107422 101.38477 C 61.311422 100.70077 61.414063 99.739906 61.414062 98.503906 C 61.414062 97.267906 61.311422 96.314578 61.107422 95.642578 C 60.903422 94.970578 60.567609 94.496703 60.099609 94.220703 C 59.631609 93.932703 58.978672 93.787109 58.138672 93.787109 z M 68.505859 93.787109 C 67.281859 93.787109 66.375109 93.949438 65.787109 94.273438 C 65.199109 94.597436 64.816719 95.084422 64.636719 95.732422 C 64.456719 96.380422 64.365234 97.315064 64.365234 98.539062 C 64.365234 99.823062 64.456714 100.78392 64.636719 101.41992 C 64.816719 102.05592 65.206642 102.52422 65.806641 102.82422 C 66.406641 103.11222 67.348813 103.25586 68.632812 103.25586 C 69.208812 103.25586 69.802063 103.23159 70.414062 103.18359 C 71.026062 103.13559 71.529781 103.07033 71.925781 102.98633 L 71.925781 101.40234 C 70.821781 101.52234 69.874031 101.58203 69.082031 101.58203 C 68.182031 101.58203 67.54025 101.52234 67.15625 101.40234 C 66.78425 101.28234 66.543547 101.07148 66.435547 100.77148 C 66.339547 100.45948 66.291016 99.937078 66.291016 99.205078 L 72.285156 99.205078 L 72.285156 98.539062 C 72.285156 97.255064 72.214316 96.307312 72.070312 95.695312 C 71.938313 95.071314 71.6025 94.597436 71.0625 94.273438 C 70.5345 93.949438 69.681859 93.787109 68.505859 93.787109 z M 80.566406 93.787109 C 79.750406 93.787109 79.095515 93.919594 78.603516 94.183594 C 78.123516 94.435594 77.776547 94.898314 77.560547 95.570312 L 77.416016 95.570312 L 77.34375 93.931641 L 75.597656 93.931641 L 75.597656 103.11133 L 77.505859 103.11133 L 77.505859 99.296875 C 77.505859 98.408875 77.58981 97.718562 77.757812 97.226562 C 77.937812 96.722564 78.243781 96.356906 78.675781 96.128906 C 79.119781 95.888906 79.750406 95.767578 80.566406 95.767578 L 80.566406 93.787109 z M 97.287109 93.787109 C 95.991109 93.787109 95.056469 93.919594 94.480469 94.183594 C 93.916469 94.447594 93.556391 94.891625 93.400391 95.515625 C 93.244392 96.127625 93.166015 97.123906 93.166016 98.503906 C 93.166015 99.895906 93.244397 100.90334 93.400391 101.52734 C 93.556391 102.13934 93.916469 102.58338 94.480469 102.85938 C 95.056469 103.12336 95.991109 103.25586 97.287109 103.25586 C 98.583109 103.25586 99.514127 103.12336 100.07812 102.85938 C 100.65413 102.58338 101.02173 102.13934 101.17773 101.52734 C 101.33373 100.90334 101.41211 99.895906 101.41211 98.503906 C 101.41211 97.123906 101.33371 96.127625 101.17773 95.515625 C 101.02172 94.891625 100.65413 94.447594 100.07812 94.183594 C 99.514127 93.919594 98.583109 93.787109 97.287109 93.787109 z M 82.257812 93.931641 L 85.425781 103.11133 L 87.910156 103.11133 L 91.078125 93.931641 L 89.115234 93.931641 L 86.775391 101.15039 L 86.613281 101.15039 L 84.238281 93.931641 L 82.257812 93.931641 z M 104.70508 93.931641 L 104.70508 104.17383 C 104.70508 104.44983 104.66773 104.65316 104.5957 104.78516 C 104.5357 104.91716 104.39206 105.01422 104.16406 105.07422 C 103.93606 105.13422 103.56483 105.16406 103.04883 105.16406 L 103.04883 106.71289 C 104.06883 106.71289 104.81325 106.65129 105.28125 106.53125 C 105.76125 106.41125 106.10459 106.14823 106.30859 105.74023 C 106.51259 105.33223 106.61328 104.67177 106.61328 103.75977 L 106.61328 93.931641 L 104.70508 93.931641 z M 68.451172 95.462891 C 69.015172 95.462891 69.429359 95.515051 69.693359 95.623047 C 69.969359 95.731047 70.167109 95.947484 70.287109 96.271484 C 70.407109 96.595484 70.46875 97.099203 70.46875 97.783203 L 70.46875 97.820312 L 66.291016 97.820312 C 66.303016 97.124314 66.357126 96.620594 66.453125 96.308594 C 66.549125 95.996594 66.741297 95.780156 67.029297 95.660156 C 67.329297 95.528156 67.803172 95.462892 68.451172 95.462891 z M 97.287109 95.480469 C 98.043109 95.480469 98.565516 95.545729 98.853516 95.677734 C 99.141515 95.809734 99.315 96.061594 99.375 96.433594 C 99.447 96.793594 99.484375 97.483906 99.484375 98.503906 C 99.484375 99.523906 99.447005 100.2198 99.375 100.5918 C 99.315 100.9638 99.141515 101.22123 98.853516 101.36523 C 98.565516 101.49723 98.043109 101.56445 97.287109 101.56445 C 96.531109 101.56445 96.010656 101.49723 95.722656 101.36523 C 95.434656 101.22123 95.253641 100.9638 95.181641 100.5918 C 95.121641 100.2198 95.09375 99.523906 95.09375 98.503906 C 95.09375 97.483906 95.121641 96.793594 95.181641 96.433594 C 95.253641 96.061594 95.434656 95.809734 95.722656 95.677734 C 96.010656 95.545734 96.531109 95.480469 97.287109 95.480469 z M 57.363281 95.587891 C 58.035281 95.587891 58.509156 95.653151 58.785156 95.785156 C 59.073156 95.905156 59.265328 96.164547 59.361328 96.560547 C 59.457328 96.944547 59.505859 97.597484 59.505859 98.521484 C 59.505859 99.445484 59.457329 100.10038 59.361328 100.48438 C 59.265328 100.86836 59.073156 101.12581 58.785156 101.25781 C 58.509156 101.37781 58.035281 101.4375 57.363281 101.4375 C 56.847281 101.4375 56.440625 101.37781 56.140625 101.25781 C 55.840625 101.12581 55.624187 100.92248 55.492188 100.64648 C 55.396188 100.41848 55.328969 100.14236 55.292969 99.818359 C 55.256969 99.482359 55.242188 99.049484 55.242188 98.521484 C 55.242188 97.993484 55.256979 97.562562 55.292969 97.226562 C 55.328969 96.890564 55.403719 96.608859 55.511719 96.380859 C 55.643718 96.116859 55.858203 95.917156 56.158203 95.785156 C 56.458203 95.653156 56.859281 95.587891 57.363281 95.587891 z M 16.630859 100.82422 L 15.369141 102.37695 L 80 154.88867 L 144.63086 102.37695 L 143.36914 100.82422 L 80 152.31055 L 16.630859 100.82422 z "
     fill="#eeeeee"
     id="path2" />
</svg>
